<svg width="600" height="400" viewBox="0 0 600 400" fill="none" xmlns="http://www.w3.org/2000/svg">
  <rect width="600" height="400" fill="white" fill-opacity="0.1"/>
  <circle cx="300" cy="200" r="150" fill="#E6F7F4"/>
  <path d="M360 100H240C229.954 100 222 107.954 222 118V282C222 292.046 229.954 300 240 300H360C370.046 300 378 292.046 378 282V118C378 107.954 370.046 100 360 100Z" fill="white" stroke="#428B7C" stroke-width="4"/>
  <rect x="238" y="130" width="124" height="45" rx="6" fill="#428B7C"/>
  <rect x="238" y="185" width="124" height="10" rx="5" fill="#D1EBE6"/>
  <rect x="238" y="205" width="124" height="10" rx="5" fill="#D1EBE6"/>
  <rect x="238" y="225" width="124" height="10" rx="5" fill="#D1EBE6"/>
  <rect x="238" y="245" width="85" height="10" rx="5" fill="#D1EBE6"/>
  <circle cx="238" cy="115" r="3" fill="#428B7C"/>
  <circle cx="247" cy="115" r="3" fill="#428B7C"/>
  <circle cx="256" cy="115" r="3" fill="#428B7C"/>
  <circle cx="460" cy="150" r="20" fill="#428B7C"/>
  <circle cx="170" cy="240" r="15" fill="#428B7C"/>
  <circle cx="140" cy="150" r="10" fill="#428B7C"/>
  <circle cx="430" cy="270" r="12" fill="#428B7C"/>
  <path d="M160 320C160 320 200 280 240 280C280 280 320 320 360 320C400 320 440 280 440 280" stroke="#428B7C" stroke-width="4" stroke-linecap="round"/>
  <path d="M180 100C180 100 220 140 260 140C300 140 340 100 380 100C420 100 460 140 460 140" stroke="#428B7C" stroke-width="4" stroke-linecap="round"/>
</svg>
